<svg xmlns="http://www.w3.org/2000/svg" xmlns:xlink="http://www.w3.org/1999/xlink" width="51.09" height="70.627" viewBox="0 0 51.09 70.627">
  <defs>
    <filter id="Path_12" x="0" y="52.627" width="51.09" height="18" filterUnits="userSpaceOnUse">
      <feOffset dy="3" input="SourceAlpha"/>
      <feGaussianBlur stdDeviation="3" result="blur"/>
      <feFlood flood-opacity="0.161"/>
      <feComposite operator="in" in2="blur"/>
      <feComposite in="SourceGraphic"/>
    </filter>
    <filter id="Path_13" x="3.118" y="0" width="44.266" height="70.307" filterUnits="userSpaceOnUse">
      <feOffset dy="3" input="SourceAlpha"/>
      <feGaussianBlur stdDeviation="3" result="blur-2"/>
      <feFlood flood-opacity="0.502"/>
      <feComposite operator="in" in2="blur-2"/>
      <feComposite in="SourceGraphic"/>
    </filter>
  </defs>
  <g id="pencil" transform="translate(9 5.627)">
    <g transform="matrix(1, 0, 0, 1, -9, -5.63)" filter="url(#Path_12)">
      <path id="Path_12-2" data-name="Path 12" d="M46,671H79.09" transform="translate(-37 -612.37)" fill="none"/>
    </g>
    <g transform="matrix(1, 0, 0, 1, -9, -5.63)" filter="url(#Path_13)">
      <path id="Path_13-2" data-name="Path 13" d="M75.112,670.359V641.523l-12.984-23.47-13.281,23.47v28.837Z" transform="translate(-36.73 -612.05)" fill="#202020"/>
    </g>
    <path id="Polygon_1" data-name="Polygon 1" d="M13.19,0l6.529,12.031L26.38,23.982,13.19,23.9,0,23.982,6.661,12.031Z" transform="translate(3.118)" fill="#fff"/>
    <path id="Path_3" data-name="Path 3" d="M126.269,568.374V599.43h-8.5V570.392s3.668-4.035,4.83-4.1S126.269,568.374,126.269,568.374Z" transform="translate(-114.763 -546.488)" fill="#222"/>
    <path id="Path_5" data-name="Path 5" d="M164.91,570.405v28.96h-7.882V568.248s2.459-2.079,3.531-2.079S164.91,570.405,164.91,570.405Z" transform="translate(-135.431 -546.423)" fill="#222"/>
    <path id="Path_4" data-name="Path 4" d="M146.108,567.314V598.37h-10.62V567.314s2.249-3.057,5-3.057S146.108,567.314,146.108,567.314Z" transform="translate(-124.271 -545.428)" fill="#202020"/>
    <line id="Line_2" data-name="Line 2" x2="35" transform="translate(-1 53)" fill="none" stroke="#202020" stroke-width="1"/>
  </g>
</svg>
