<svg xmlns="http://www.w3.org/2000/svg" xmlns:xlink="http://www.w3.org/1999/xlink" width="80.13" height="70.099" viewBox="0 0 80.13 70.099">
  <defs>
    <filter id="Line_1" x="0" y="51.099" width="80.13" height="19" filterUnits="userSpaceOnUse">
      <feOffset dy="3" input="SourceAlpha"/>
      <feGaussianBlur stdDeviation="3" result="blur"/>
      <feFlood flood-opacity="0.161"/>
      <feComposite operator="in" in2="blur"/>
      <feComposite in="SourceGraphic"/>
    </filter>
    <filter id="Path_1" x="6.741" y="0" width="68.132" height="44.109" filterUnits="userSpaceOnUse">
      <feOffset dy="3" input="SourceAlpha"/>
      <feGaussianBlur stdDeviation="3" result="blur-2"/>
      <feFlood flood-opacity="0.161"/>
      <feComposite operator="in" in2="blur-2"/>
      <feComposite in="SourceGraphic"/>
    </filter>
    <filter id="Rectangle_2" x="5" y="17.046" width="71" height="52" filterUnits="userSpaceOnUse">
      <feOffset dy="3" input="SourceAlpha"/>
      <feGaussianBlur stdDeviation="3" result="blur-3"/>
      <feFlood flood-opacity="0.161"/>
      <feComposite operator="in" in2="blur-3"/>
      <feComposite in="SourceGraphic"/>
    </filter>
  </defs>
  <g id="rubber-stroke" transform="translate(9 6)">
    <g transform="matrix(1, 0, 0, 1, -9, -6)" filter="url(#Line_1)">
      <line id="Line_1-2" data-name="Line 1" x2="62.13" transform="translate(9 57.6)" fill="none" stroke="#202020" stroke-width="1"/>
    </g>
    <g transform="matrix(1, 0, 0, 1, -9, -6)" filter="url(#Path_1)">
      <path id="Path_1-2" data-name="Path 1" d="M2.186-8.8a126.377,126.377,0,0,1,23.9-2.818A94.555,94.555,0,0,1,47.946-8.8c1.458.321,2.186,1.521,2.186,3.4V11.1c0,1.876-.979,3.4-2.186,3.4H2.186C.979,14.494,0,12.973,0,11.1V-5.4C0-7.277.73-8.464,2.186-8.8Z" transform="translate(15.74 17.62)" fill="#fff"/>
    </g>
    <g transform="matrix(1, 0, 0, 1, -9, -6)" filter="url(#Rectangle_2)">
      <rect id="Rectangle_2-2" data-name="Rectangle 2" width="53" height="34" transform="translate(14 23.05)" fill="#202020"/>
    </g>
  </g>
</svg>
